<svg xmlns="http://www.w3.org/2000/svg" width="24.218" height="18.163" viewBox="0 0 24.218 18.163">
  <g id="ba" transform="translate(0 -58.025)">
    <g id="Group_238" data-name="Group 238" transform="translate(0 58.025)">
      <g id="grip-solid-horizontal_1_">
        <path id="Path_73" data-name="Path 73" d="M22.7,351.181H1.514a1.514,1.514,0,0,1,0-3.027H22.7a1.514,1.514,0,1,1,0,3.027Z" transform="translate(0 -333.018)" fill="#f4c430"/>
        <path id="Path_74" data-name="Path 74" d="M22.7,206.117H1.514a1.514,1.514,0,1,1,0-3.027H22.7a1.514,1.514,0,1,1,0,3.027Z" transform="translate(0 -195.522)" fill="#f4c430"/>
        <path id="Path_75" data-name="Path 75" d="M22.7,61.052H1.514a1.514,1.514,0,0,1,0-3.027H22.7a1.514,1.514,0,1,1,0,3.027Z" transform="translate(0 -58.025)" fill="#f4c430"/>
      </g>
    </g>
  </g>
</svg>
