<svg id="call_" data-name="call " xmlns="http://www.w3.org/2000/svg" width="62.667" height="62.667" viewBox="0 0 62.667 62.667">
  <g id="Group_187" data-name="Group 187">
    <path id="Path_69" data-name="Path 69" d="M31.334,0A31.334,31.334,0,1,0,62.667,31.334,31.335,31.335,0,0,0,31.334,0ZM47,48.959A33.329,33.329,0,0,1,13.709,15.667a1.959,1.959,0,0,1,1.958-1.958H22.9a1.959,1.959,0,0,1,1.958,1.958,21.6,21.6,0,0,0,2.189,9.576,1.962,1.962,0,0,1-.909,2.624l-2.922,1.41A27.52,27.52,0,0,0,33.386,39.449l1.41-2.918a1.962,1.962,0,0,1,2.624-.909A21.634,21.634,0,0,0,47,37.812a1.959,1.959,0,0,1,1.958,1.958V47h0A1.959,1.959,0,0,1,47,48.959Z" fill="#f4c430"/>
  </g>
</svg>
