<svg xmlns="http://www.w3.org/2000/svg" width="42.277" height="42.316" viewBox="0 0 42.277 42.316">
  <g id="di" transform="translate(-6.9 -6.9)">
    <g id="Group_239" data-name="Group 239" transform="translate(6.9 6.9)">
      <path id="Path_73" data-name="Path 73" d="M31.7,9.6V6.371a.731.731,0,0,0-.725-.725H28.4L29.718.9h3.559L31.959,3.6a.606.606,0,0,0,.066.659.692.692,0,0,0,.593.33h2.439Z" transform="translate(-10.274 -0.9)" fill="#f4c430"/>
      <g id="Group_238" data-name="Group 238" transform="translate(0 6.069)">
        <path id="Path_74" data-name="Path 74" d="M7.821,41.452c0-3.889,1.186-3.889,2.373-3.889s2.373,0,2.373,3.889a28.362,28.362,0,0,1-.527,5.141H8.414a23.689,23.689,0,0,1-.593-5.141Zm8.173,5.141H13.423a28.963,28.963,0,0,0,.527-5.141c0-3.757-1.121-5.339-3.757-5.339s-3.757,1.516-3.757,5.339a28.362,28.362,0,0,0,.527,5.141H2.548l-.791-2.307a.23.23,0,0,0-.066-.132s-1.582-2.571.857-5.866a5.611,5.611,0,0,1,2.7-2.109,6.208,6.208,0,0,0,3.427-3.427,7.767,7.767,0,0,0,.791-3.493,1.212,1.212,0,0,0-.791-1.121,1.347,1.347,0,0,0-1.384.264,2.2,2.2,0,0,1-1.911.857c-.857-.2-1.78-1.318-2.5-3.164A1.915,1.915,0,0,0,.9,24.908l.791-2.7a1.638,1.638,0,0,0,.066-.527V18.25A10.127,10.127,0,0,0,4,19.041c1.384.4,2.241.659,2.636,1.516a1.319,1.319,0,0,0,1.846.527.691.691,0,0,1,.791.066.61.61,0,0,1,.132.791l-.4.725a3.4,3.4,0,0,0,0,3.362,3.156,3.156,0,0,0,1.78,1.45.783.783,0,0,1,.593.725v.066a2.028,2.028,0,0,0,.4,1.252,11.924,11.924,0,0,1,2.307,5.668,16.3,16.3,0,0,0,.725,3.1,28.116,28.116,0,0,1,.923,4.218,27.577,27.577,0,0,1,.264,4.087Zm.923-5.6c-.2-1.055-.461-2.043-.725-3.032a15.325,15.325,0,0,1-.659-2.9,14.326,14.326,0,0,0-2.571-6.328.937.937,0,0,1-.132-.4v-.066a2.176,2.176,0,0,0-1.582-2.043,1.757,1.757,0,0,1-.989-.857,2.1,2.1,0,0,1,0-1.977l.4-.725a2.1,2.1,0,0,0-.4-2.571,2,2,0,0,0-1.384-.527,1.86,1.86,0,0,0-.989.264c-.725-1.384-2.109-1.78-3.427-2.109a7.756,7.756,0,0,1-2.5-1.055C2.416,15.284,4.327,11,9.4,11a12.543,12.543,0,0,1,3.889.725c.593.33,6.459,3.493,3.757,9.953-.33.527-2.373,4.152.066,7.58,1.714,2.439,2.109,8.569-.2,11.732Z" transform="translate(-0.9 -10.412)" fill="#f4c430"/>
        <path id="Path_75" data-name="Path 75" d="M37.687,44.048c0-6,2.9-6,3.889-6s3.889,0,3.889,6c0,.725-.066,1.45-.132,2.307H37.818C37.752,45.5,37.687,44.707,37.687,44.048Zm16.544-19.51a.713.713,0,0,1-.33.264l-1.186.132a1.378,1.378,0,0,0-.857.461,1.144,1.144,0,0,0-.2.923l.33,1.977A2.129,2.129,0,0,1,49.023,30.6L45.53,29.02a.693.693,0,1,0-.593,1.252l2.307,1.055a7.942,7.942,0,0,1-.659,2.109,1.915,1.915,0,0,0,.33,2.109c4.943,5.207,5.8,9.228,5.932,10.744h-6.13c.066-.791.132-1.582.132-2.307,0-6.13-2.9-7.448-5.273-7.448-2.439,0-5.273,1.318-5.273,7.448,0,.725.066,1.516.132,2.307H33.6V42.663a12.439,12.439,0,0,1,4.482-9.689l.132-.132a5.849,5.849,0,0,0,2.241-4.482v-2.5A5.2,5.2,0,0,0,39.6,22.89c-1.055-1.648-3.3-5.866-1.582-9.162,1.252-2.373,5.075-3.955,8.635-3.559a8.091,8.091,0,0,1,7.184,6.525.668.668,0,0,1-.132.527c-.264.33-.857.461-1.714.461a3.265,3.265,0,0,0-1.78.461A19.524,19.524,0,0,0,48.1,19.66a2.267,2.267,0,0,1-1.384.527l-1.186-.066a3.294,3.294,0,0,0-3.23,2.109,3.165,3.165,0,0,0,.923,3.691l.066.066a.6.6,0,0,0,.923-.132A.743.743,0,0,0,44.08,24.8a1.942,1.942,0,0,1-.527-2.109A1.862,1.862,0,0,1,45.4,21.506l1.186.066a3.216,3.216,0,0,0,2.373-.857,11.013,11.013,0,0,1,1.911-1.384,1.934,1.934,0,0,1,1.055-.264A4.989,4.989,0,0,0,52.912,19V21.11a1.242,1.242,0,0,0,.132.527L54.3,24.01a.6.6,0,0,1-.066.527Z" transform="translate(-12.047 -10.108)" fill="#f4c430"/>
      </g>
    </g>
  </g>
</svg>
