<svg xmlns="http://www.w3.org/2000/svg" width="41.388" height="41.34" viewBox="0 0 41.388 41.34">
  <g id="love" transform="translate(-1126 -1781)">
    <g id="love-2" data-name="love" transform="translate(1126 1781)">
      <path id="Path_72" data-name="Path 72" d="M20.892.031a4.882,4.882,0,0,0-4.565,2.1.431.431,0,0,1-.7,0,4.877,4.877,0,0,0-4.567-2.1A5.34,5.34,0,0,0,6.5,5.566c0,4.181,5.9,9.151,8.441,11.092a1.688,1.688,0,0,0,2.079,0c2.537-1.94,8.441-6.911,8.441-11.092A5.34,5.34,0,0,0,20.892.031Z" transform="translate(4.695 -0.002)" fill="#f4c430"/>
      <path id="Path_73" data-name="Path 73" d="M14.411,24.44a.431.431,0,0,1-.057-.73,7.58,7.58,0,1,0-8.9,0,.431.431,0,0,1-.055.73A9.917,9.917,0,0,0,0,33.259a.861.861,0,0,0,.861.861H18.949a.861.861,0,0,0,.861-.861A9.917,9.917,0,0,0,14.411,24.44ZM5.984,16.276a.432.432,0,0,1,.641-.226,9.674,9.674,0,0,0,5.232,1.53,9.819,9.819,0,0,0,1.664-.143.429.429,0,0,1,.5.456,4.134,4.134,0,1,1-8.039-1.618Z" transform="translate(0 7.219)" fill="#f4c430"/>
      <path id="Path_74" data-name="Path 74" d="M26.075,18.7a.861.861,0,0,0-1.084.362l-2.083,3.617a.431.431,0,0,1-.746,0L20.082,19.06A.861.861,0,0,0,19,18.7a9.058,9.058,0,0,0-5.5,8.322.861.861,0,0,0,.861.861H30.726a.861.861,0,0,0,.861-.861A9.058,9.058,0,0,0,26.075,18.7Z" transform="translate(9.755 13.459)" fill="#f4c430"/>
      <path id="Path_75" data-name="Path 75" d="M29.9,17.305a7.321,7.321,0,1,0-14.642,0,5.29,5.29,0,0,1-1.206,4.05,1.723,1.723,0,1,0,2.412,2.45,6.77,6.77,0,0,0,.718-.839.432.432,0,0,1,.63-.076,7.306,7.306,0,0,0,9.521,0,.438.438,0,0,1,.332-.1.429.429,0,0,1,.3.172,6.639,6.639,0,0,0,.72.839,1.723,1.723,0,1,0,2.422-2.446,5.283,5.283,0,0,1-1.206-4.05Zm-7.321,3.9a3.881,3.881,0,0,1-3.843-3.378.429.429,0,0,1,.345-.479,6,6,0,0,0,1.566-.482,4.258,4.258,0,0,0,1.578-1.276.432.432,0,0,1,.689,0,4.263,4.263,0,0,0,1.576,1.276,6.012,6.012,0,0,0,1.568.482.431.431,0,0,1,.345.479A3.881,3.881,0,0,1,22.578,21.209Z" transform="translate(9.721 7.212)" fill="#f4c430"/>
    </g>
  </g>
</svg>
