<svg xmlns="http://www.w3.org/2000/svg" width="38.208" height="32.06" viewBox="0 0 38.208 32.06">
  <g id="m1" transform="translate(-1543 -986)">
    <g id="Group_152" data-name="Group 152" transform="translate(1543 952.041)">
      <g id="Group_151" data-name="Group 151" transform="translate(0 33.959)">
        <circle id="Ellipse_4" data-name="Ellipse 4" cx="2.613" cy="2.613" r="2.613" transform="translate(6.2 3.549) rotate(-42.771)" fill="#f4c430"/>
        <path id="Path_57" data-name="Path 57" d="M22.488,107.1a1.232,1.232,0,0,0-1.513-.864l-5.606,1.532-4.255.279-2.823-.187a5.587,5.587,0,0,0-2.037.242L.831,109.8a1.232,1.232,0,0,0-.824,1.3l.511,4.691a1.232,1.232,0,1,0,2.449-.267l-.4-3.713,2.5-.861-.529,7.289-3.8,12.721a1.478,1.478,0,0,0,2.833.847l3.723-12.453h1.22l1.846,6.292.037,5.748a1.478,1.478,0,0,0,1.478,1.469h.01a1.478,1.478,0,0,0,1.469-1.488l-.039-5.955a1.476,1.476,0,0,0-.06-.407l-2.026-6.829.57-7.708,3.861-.253a1.23,1.23,0,0,0,.244-.041l5.726-1.565a1.232,1.232,0,0,0,.864-1.513Z" transform="translate(0 -100.805)" fill="#f4c430"/>
        <g id="Group_150" data-name="Group 150" transform="translate(16.246 7.45)">
          <path id="Path_58" data-name="Path 58" d="M239.386,137.258a1.232,1.232,0,0,0-1.711-.33l-2.305,1.559-.636-2.733a2.279,2.279,0,0,0-1.648-1.69l-1.177-.305a3.4,3.4,0,0,1-4.767.039l-3.517,4.079-4.9.563a1.232,1.232,0,0,0,.281,2.448l5.376-.618a1.232,1.232,0,0,0,.793-.42l1.235-1.432-1.138,4.338c-.1.143.126-.237-3.616,6.415a1.478,1.478,0,0,0-.184.851l.6,7a1.478,1.478,0,0,0,2.946-.253l-.562-6.543,2.778-4.945,1.069.287-.316,5.47a1.479,1.479,0,0,0,.107.644l2.357,5.771a1.478,1.478,0,1,0,2.737-1.118l-2.23-5.462.3-5.226,1.722-6.538.387,1.656a1.268,1.268,0,0,0,.487.749,1.233,1.233,0,0,0,1.409.02l3.788-2.562A1.232,1.232,0,0,0,239.386,137.258Z" transform="translate(-217.636 -133.76)" fill="#f4c430"/>
        </g>
        <path id="Path_59" data-name="Path 59" d="M345.007,72.481a2.554,2.554,0,1,0-2.467-3.216A2.554,2.554,0,0,0,345.007,72.481Z" transform="translate(-316.888 -64.88)" fill="#f4c430"/>
      </g>
    </g>
  </g>
</svg>
