<svg xmlns="http://www.w3.org/2000/svg" width="44.426" height="37.021" viewBox="0 0 44.426 37.021">
  <g id="m2" transform="translate(0 -42.666)">
    <g id="Group_144" data-name="Group 144" transform="translate(0 42.666)">
      <g id="Group_143" data-name="Group 143" transform="translate(0 0)">
        <g id="Group_142" data-name="Group 142">
          <path id="Path_44" data-name="Path 44" d="M40.723,48.219H31.468V46.368a3.706,3.706,0,0,0-3.7-3.7H16.66a3.706,3.706,0,0,0-3.7,3.7v1.851H3.7a3.706,3.706,0,0,0-3.7,3.7v5.553a3.706,3.706,0,0,0,3.7,3.7H18.511v-.926a.925.925,0,0,1,.926-.926h5.553a.925.925,0,0,1,.926.926v.926H40.724a3.706,3.706,0,0,0,3.7-3.7V51.921A3.706,3.706,0,0,0,40.723,48.219Zm-12.957,0H16.66V46.368H27.766Z" transform="translate(0 -42.666)" fill="#f4c430"/>
          <path id="Path_45" data-name="Path 45" d="M43.912,266.481a.927.927,0,0,0-.971.091,3.655,3.655,0,0,1-2.218.761H25.915v2.777a.925.925,0,0,1-.926.926H19.436a.925.925,0,0,1-.926-.926v-2.777H3.7a3.655,3.655,0,0,1-2.218-.761A.925.925,0,0,0,0,267.31v12.981a3.706,3.706,0,0,0,3.7,3.7H40.723a3.706,3.706,0,0,0,3.7-3.7V267.31A.926.926,0,0,0,43.912,266.481Z" transform="translate(0 -246.972)" fill="#f4c430"/>
        </g>
      </g>
    </g>
  </g>
</svg>
