<svg xmlns="http://www.w3.org/2000/svg" width="40.787" height="43.115" viewBox="0 0 40.787 43.115">
  <g id="m3" transform="translate(-13.83)">
    <path id="Path_46" data-name="Path 46" d="M16.764,30.049a27.935,27.935,0,0,0,8.97,1.317,27.935,27.935,0,0,0,8.97-1.317,8.867,8.867,0,0,0,2.934-1.589v4.254c0,1.827-4.889,3.863-11.9,3.863s-11.9-2.035-11.9-3.862V28.46a8.913,8.913,0,0,0,2.934,1.589ZM42.683,18.209a27.983,27.983,0,0,0,8.987-1.322,8.944,8.944,0,0,0,2.947-1.6v4.274c-.008,1.834-4.91,3.874-11.942,3.874a33.463,33.463,0,0,1-3.843-.216,13.726,13.726,0,0,0,3.851-5.013ZM54.616,32.682c-.008,1.834-4.91,3.874-11.942,3.874a33.278,33.278,0,0,1-3.977-.233V30.832a34.428,34.428,0,0,0,3.977.225,28.028,28.028,0,0,0,9-1.32,8.982,8.982,0,0,0,2.947-1.6v4.542ZM37.593,24.124l-.175.109a2.832,2.832,0,0,1,1.28,2.208v3.322A33.172,33.172,0,0,0,42.675,30c7.032,0,11.934-2.04,11.942-3.874V21.581a8.945,8.945,0,0,1-2.947,1.6,28.016,28.016,0,0,1-9,1.321,33.3,33.3,0,0,1-5.081-.374ZM13.83,39.251c0,1.827,4.889,3.864,11.9,3.864s11.9-2.037,11.9-3.864V34.73A8.869,8.869,0,0,1,34.7,36.319a27.934,27.934,0,0,1-8.97,1.318,27.939,27.939,0,0,1-8.97-1.317,8.927,8.927,0,0,1-2.934-1.589Zm28.844,3.864c7.032,0,11.934-2.041,11.942-3.874V34.7a8.953,8.953,0,0,1-2.947,1.6,28.023,28.023,0,0,1-8.995,1.321,34.425,34.425,0,0,1-3.977-.226v1.86c0,1.186-1,2.278-2.834,3.135A30.191,30.191,0,0,0,42.674,43.115Zm8.749-32.424A25.913,25.913,0,0,0,43.5,9.4a13.676,13.676,0,0,1-.387,7.743c6.8-.082,11.509-2.079,11.509-3.875,0-.891-1.192-1.854-3.193-2.579ZM30.2,0A12.619,12.619,0,1,0,42.82,12.619,12.632,12.632,0,0,0,30.2,0ZM15.718,24.429c-1.217.627-1.888,1.342-1.888,2.013,0,1.828,4.889,3.865,11.9,3.865s11.9-2.037,11.9-3.865c0-.668-.646-1.245-1.234-1.634a13.654,13.654,0,0,1-15.231-1.922l-.029.005a17.734,17.734,0,0,0-5.427,1.537Zm13.951-4.505a5.524,5.524,0,0,1-3.776-3.063.529.529,0,1,1,.946-.475,4.557,4.557,0,0,0,2.83,2.451V12.947a3.814,3.814,0,0,1-3.143-4.224A3.491,3.491,0,0,1,29.669,5.26V3.421a.529.529,0,1,1,1.059,0v1.8a4.228,4.228,0,0,1,3.81,2.959.529.529,0,0,1-1,.33,3.2,3.2,0,0,0-2.805-2.224v5.851l.029.007c1.7.426,3.814.955,3.773,4.066a3.679,3.679,0,0,1-2.905,3.722,4.283,4.283,0,0,1-.9.1v1.992a.529.529,0,1,1-1.059,0v-2.1Zm3.8-3.735a2.625,2.625,0,0,1-2.084,2.7,3.234,3.234,0,0,1-.659.079V13.225c1.621.411,2.772.794,2.743,2.965ZM27.585,8.735a2.429,2.429,0,0,1,2.084-2.4v5.5c-1.242-.4-2.109-1.062-2.084-3.1Z" transform="translate(0)" fill="#f4c430" fill-rule="evenodd"/>
  </g>
</svg>
