<svg xmlns="http://www.w3.org/2000/svg" width="20.816" height="53.98" viewBox="0 0 20.816 53.98">
  <g id="m4" transform="translate(-38.561 -2.5)">
    <g id="Group_146" data-name="Group 146" transform="translate(38.561 2.5)">
      <path id="Path_47" data-name="Path 47" d="M50.034,76.256a2.686,2.686,0,0,0,2.67-2.67V56.8H47.3V73.585A2.785,2.785,0,0,0,50.034,76.256Z" transform="translate(-41.744 -22.276)" fill="#f4c430"/>
      <path id="Path_48" data-name="Path 48" d="M47.9,13.436a5.414,5.414,0,0,1-5.4-5.468,5.4,5.4,0,1,1,5.4,5.468Z" transform="translate(-39.995 -2.5)" fill="#f4c430"/>
      <path id="Path_49" data-name="Path 49" d="M59.376,38.664a7.43,7.43,0,0,0-4.451-6.8,6.931,6.931,0,0,1-4.006-4.323,18.545,18.545,0,0,1-.445-1.844,4.007,4.007,0,0,0-3.815-3.306c-2.988-.191-4.2.89-4.514,3.115l-3.56,25.178a.883.883,0,0,0,.127.7.578.578,0,0,0,.509.254H56.134a.785.785,0,0,0,.509-.254.883.883,0,0,0,.127-.7c-.064-.318-.509-2.1-.827-3.5a3.2,3.2,0,0,1,.89-3.052A6.894,6.894,0,0,0,59.376,38.664Zm-2.988-.127A1.769,1.769,0,0,1,54.672,40h-.254C49.9,39.236,44.5,36.375,44.308,26.965a1.749,1.749,0,1,1,3.5-.064c.127,5.786,2.416,8.838,7.185,9.664A1.733,1.733,0,0,1,56.388,38.537Z" transform="translate(-38.561 -9.735)" fill="#f4c430"/>
    </g>
  </g>
</svg>
