<svg id="m5" xmlns="http://www.w3.org/2000/svg" width="39.001" height="39.001" viewBox="0 0 39.001 39.001">
  <path id="Path_50" data-name="Path 50" d="M12.125,16.251a8.125,8.125,0,1,1,8.125-8.125A8.134,8.134,0,0,1,12.125,16.251Z" transform="translate(2.5)" fill="#f4c430"/>
  <path id="Path_51" data-name="Path 51" d="M7.719,12.01A7.726,7.726,0,0,0,0,19.729v5.688a1.228,1.228,0,0,0,1.219,1.219H16.251V21.354a6.1,6.1,0,0,1,5.216-6.013,6.25,6.25,0,0,1,2.243-3.023C22.084,11.854,22,12.01,7.719,12.01Z" transform="translate(0 7.491)" fill="#f4c430"/>
  <path id="Path_52" data-name="Path 52" d="M28.346,17.563H26.315V16.344A2.847,2.847,0,0,0,23.471,13.5H19.408a2.847,2.847,0,0,0-2.844,2.844v1.219H14.533a2.827,2.827,0,0,0-2.036.866l8.943,4.666,8.943-4.666A2.827,2.827,0,0,0,28.346,17.563Zm-9.344,0V16.344a.406.406,0,0,1,.406-.406h4.063a.406.406,0,0,1,.406.406v1.219Z" transform="translate(7.811 8.438)" fill="#f4c430"/>
  <path id="Path_53" data-name="Path 53" d="M22.314,22.759a1.22,1.22,0,0,1-1.126,0L12,17.965v6.963a2.847,2.847,0,0,0,2.844,2.844H28.657A2.847,2.847,0,0,0,31.5,24.928V17.965Z" transform="translate(7.501 11.229)" fill="#f4c430"/>
</svg>
