<svg xmlns="http://www.w3.org/2000/svg" width="40.05" height="40.047" viewBox="0 0 40.05 40.047">
  <g id="m6" transform="translate(0 -0.017)">
    <g id="Group_148" data-name="Group 148" transform="translate(0 0.017)">
      <path id="Path_54" data-name="Path 54" d="M60.009,269.151v11.858H90.67V269.151Zm10.751,6,1.659-1.659,2,2,3.84-3.84,1.659,1.659-5.5,5.5Z" transform="translate(-55.315 -248.097)" fill="#f4c430"/>
      <path id="Path_55" data-name="Path 55" d="M0,450.73H40.05v4.789H0Z" transform="translate(0 -415.472)" fill="#f4c430"/>
      <circle id="Ellipse_3" data-name="Ellipse 3" cx="4.825" cy="4.825" r="4.825" transform="translate(15.2)" fill="#f4c430"/>
      <path id="Path_56" data-name="Path 56" d="M165.6,151.421a8.4,8.4,0,0,0-5.221-7.445,7.161,7.161,0,0,1-6.322,0,8.4,8.4,0,0,0-5.221,7.445Z" transform="translate(-137.197 -132.715)" fill="#f4c430"/>
    </g>
  </g>
</svg>
