<svg xmlns="http://www.w3.org/2000/svg" width="39.277" height="40.885" viewBox="0 0 39.277 40.885">
  <g id="m7" transform="translate(-9.656)">
    <g id="XMLID_185_" transform="translate(9.656)">
      <path id="XMLID_186_" d="M24.766,153.387a3.443,3.443,0,0,0,.959-.677c.937-.937,1.186-3.373,1.186-3.373s-2.436.249-3.373,1.186a2.752,2.752,0,0,0-.908,2.085A7.931,7.931,0,0,1,18.3,148.28c.031.042-.072-.1.069.093a6.128,6.128,0,0,1,.005-5.927,7.755,7.755,0,0,0,2.935,2.445.318.318,0,0,0,.422-.438,7.1,7.1,0,0,1-.594-4.414,7.411,7.411,0,0,0,1.022-.675c2.455-2,3.5-6.07,1.673-7.854s-6.5-.434-8.289,1.393l-.053.054a18.832,18.832,0,0,0-2.046,2.454,6.339,6.339,0,0,1-3.379-.024.318.318,0,0,0-.346.5,8.616,8.616,0,0,0,2.334,2.089,12.533,12.533,0,0,0-.741,6.612c1.214,7.66,7.371,10,11.3,9.464l.024,0a2.672,2.672,0,0,0,.9,2.2c.936.937,3.373,1.186,3.373,1.186s-.249-2.436-1.186-3.373A3.418,3.418,0,0,0,24.766,153.387Z" transform="translate(-9.656 -116.552)" fill="#f4c430"/>
      <path id="XMLID_187_" d="M266.257,21.551a8.614,8.614,0,0,0-2.334-2.089,12.532,12.532,0,0,0,.741-6.612c-1.214-7.66-7.371-10-11.3-9.464l-.024,0a2.672,2.672,0,0,0-.9-2.2C251.506.249,249.069,0,249.069,0s.249,2.436,1.186,3.373a3.42,3.42,0,0,0,.959.677,3.445,3.445,0,0,0-.959.677c-.937.937-1.186,3.373-1.186,3.373s2.436-.249,3.373-1.186a2.753,2.753,0,0,0,.908-2.085,7.933,7.933,0,0,1,4.326,4.328c-.031-.042.072.1-.069-.093a6.812,6.812,0,0,1,.666,4.036,6.88,6.88,0,0,1-.671,1.891,7.762,7.762,0,0,0-2.935-2.445.318.318,0,0,0-.422.438,7.1,7.1,0,0,1,.594,4.414,7.414,7.414,0,0,0-1.022.675c-2.455,2-3.5,6.07-1.673,7.854s6.5.434,8.289-1.393l.053-.054a18.874,18.874,0,0,0,2.046-2.454,6.339,6.339,0,0,1,3.379.024.318.318,0,0,0,.346-.5Z" transform="translate(-227.048)" fill="#f4c430"/>
    </g>
  </g>
</svg>
