<svg xmlns="http://www.w3.org/2000/svg" width="262.79" height="220.503" viewBox="0 0 262.79 220.503">
  <g id="m1" transform="translate(-1543 -986)">
    <g id="Group_152" data-name="Group 152" transform="translate(1543 986)">
      <g id="Group_151" data-name="Group 151" transform="translate(0 0)">
        <circle id="Ellipse_4" data-name="Ellipse 4" cx="17.975" cy="17.975" r="17.975" transform="translate(42.646 24.409) rotate(-42.771)" fill="#f4c430"/>
        <path id="Path_57" data-name="Path 57" d="M154.667,112.438A8.473,8.473,0,0,0,144.26,106.5l-38.554,10.539L76.44,118.96l-19.413-1.286a38.426,38.426,0,0,0-14.009,1.667L5.716,131a8.473,8.473,0,0,0-5.665,8.928l3.511,32.264a8.473,8.473,0,1,0,16.847-1.833l-2.779-25.538L34.841,138.9,31.2,189.033l-26.158,87.5a10.168,10.168,0,0,0,19.484,5.824L50.13,196.7H58.52l12.694,43.274.257,39.534a10.166,10.166,0,0,0,10.166,10.1H81.7a10.167,10.167,0,0,0,10.1-10.233l-.266-40.961a10.151,10.151,0,0,0-.411-2.8l-13.934-46.97,3.92-53.016,26.555-1.744a8.458,8.458,0,0,0,1.679-.282l39.38-10.764a8.472,8.472,0,0,0,5.939-10.407Z" transform="translate(0 -69.109)" fill="#f4c430"/>
        <g id="Group_150" data-name="Group 150" transform="translate(111.737 51.239)">
          <path id="Path_58" data-name="Path 58" d="M367.234,157.822a8.473,8.473,0,0,0-11.765-2.271l-15.856,10.723-4.373-18.794A15.675,15.675,0,0,0,323.9,135.858l-8.1-2.1a23.354,23.354,0,0,1-32.787.267L258.833,162.08l-33.69,3.87a8.473,8.473,0,0,0,1.934,16.835l36.979-4.248a8.472,8.472,0,0,0,5.451-2.885L278,165.8l-7.828,29.834c-.712.984.868-1.633-24.869,44.119a10.167,10.167,0,0,0-1.266,5.85l4.131,48.119a10.167,10.167,0,1,0,20.26-1.739l-3.863-45,19.106-34.009,7.354,1.974-2.173,37.62a10.172,10.172,0,0,0,.738,4.43L305.8,296.7a10.167,10.167,0,1,0,18.825-7.688l-15.341-37.564,2.076-35.946,11.844-44.965,2.661,11.388a8.718,8.718,0,0,0,3.349,5.149,8.481,8.481,0,0,0,9.694.136l26.052-17.619A8.471,8.471,0,0,0,367.234,157.822Z" transform="translate(-217.636 -133.76)" fill="#f4c430"/>
        </g>
        <path id="Path_59" data-name="Path 59" d="M360.031,102.5A17.564,17.564,0,1,0,343.06,80.386,17.567,17.567,0,0,0,360.031,102.5Z" transform="translate(-166.632 -50.218)" fill="#f4c430"/>
      </g>
    </g>
  </g>
</svg>
