<svg id="whatsapp" xmlns="http://www.w3.org/2000/svg" width="62" height="62" viewBox="0 0 62 62">
  <g id="_09.whatsapp" data-name="09.whatsapp">
    <circle id="background" cx="31" cy="31" r="31" fill="#29a71a"/>
    <g id="icon" transform="translate(11.828 11.678)">
      <path id="Path_70" data-name="Path 70" d="M66.459,38.744A19.3,19.3,0,0,0,35.545,61.068L33.5,71.008a.736.736,0,0,0,.117.576.746.746,0,0,0,.792.308l9.742-2.309a19.294,19.294,0,0,0,22.31-30.839ZM63.421,62.988a15.114,15.114,0,0,1-17.405,2.829l-1.358-.672L38.685,66.56l.018-.074,1.238-6.012-.665-1.312A15.107,15.107,0,0,1,63.421,41.626a.806.806,0,0,0,.078.078A15.107,15.107,0,0,1,63.421,62.988Z" transform="translate(-33.447 -33.024)" fill="#fff"/>
      <path id="Path_71" data-name="Path 71" d="M80.386,76.829a6.274,6.274,0,0,1-3.342,2.914c-2.546.615-6.454.021-11.316-4.512l-.06-.053c-4.275-3.964-5.386-7.263-5.117-9.88a6.254,6.254,0,0,1,2.429-3.706,1.39,1.39,0,0,1,2.175.5l1.574,3.536a1.383,1.383,0,0,1-.173,1.414l-.8,1.033a1.369,1.369,0,0,0-.124,1.528,14.868,14.868,0,0,0,2.7,3,15.747,15.747,0,0,0,3.738,2.677,1.351,1.351,0,0,0,1.482-.311l.923-.93a1.414,1.414,0,0,1,1.379-.354l3.738,1.061a1.414,1.414,0,0,1,.792,2.09Z" transform="translate(-50.942 -51.275)" fill="#fff"/>
    </g>
  </g>
</svg>
